<?xml version="1.0" standalone="yes"?>

<svg version="1.1" viewBox="0.0 0.0 528.0 100.0" fill="none" stroke="none" stroke-linecap="square" stroke-miterlimit="10" xmlns="http://www.w3.org/2000/svg" xmlns:xlink="http://www.w3.org/1999/xlink"><clipPath id="p.0"><path d="m0 0l528.0 0l0 100.0l-528.0 0l0 -100.0z" clip-rule="nonzero"></path></clipPath><g clip-path="url(#p.0)"><path fill="#000000" fill-opacity="0.0" d="m0 0l528.7507 0l0 100.0l-528.7507 0z" fill-rule="nonzero"></path><path fill="#000000" fill-opacity="0.0" d="m206.8819 5.4881887l114.99213 0l0 92.37795l-114.99213 0z" fill-rule="nonzero"></path><path stroke="#000000" stroke-width="2.0" stroke-linejoin="round" stroke-linecap="butt" d="m206.8819 5.4881887l114.99213 0l0 92.37795l-114.99213 0z" fill-rule="nonzero"></path><path fill="#000000" d="m228.28616 46.95654l0 10.859375l1.046875 0q0.28125 0 0.40625 0.109375q0.125 0.109375 0.125 0.28125q0 0.171875 -0.125 0.28125q-0.125 0.109375 -0.40625 0.109375l-1.828125 0l0 -1.546875q-1.359375 1.859375 -3.453125 1.859375q-1.046875 0 -2.015625 -0.5625q-0.96875 -0.5625 -1.53125 -1.59375q-0.5625 -1.046875 -0.5625 -2.15625q0 -1.109375 0.5625 -2.140625q0.5625 -1.046875 1.53125 -1.609375q0.96875 -0.5625 2.03125 -0.5625q2.046875 0 3.4375 1.859375l0 -4.40625l-1.046875 0q-0.28125 0 -0.40625 -0.109375q-0.125 -0.109375 -0.125 -0.28125q0 -0.171875 0.125 -0.28125q0.125 -0.109375 0.40625 -0.109375l1.828125 0zm-0.78125 7.640625q0 -1.484375 -1.015625 -2.5q-1.0 -1.03125 -2.375 -1.03125q-1.390625 0 -2.390625 1.03125q-1.0 1.015625 -1.0 2.5q0 1.46875 1.0 2.5q1.0 1.03125 2.390625 1.03125q1.375 0 2.375 -1.03125q1.015625 -1.03125 1.015625 -2.5zm12.589355 0.171875l-7.953125 0q0.21875 1.515625 1.28125 2.4375q1.0625 0.921875 2.625 0.921875q0.875 0 1.828125 -0.28125q0.953125 -0.296875 1.5625 -0.765625q0.171875 -0.140625 0.296875 -0.140625q0.15625 0 0.265625 0.125q0.109375 0.109375 0.109375 0.265625q0 0.15625 -0.15625 0.296875q-0.4375 0.46875 -1.578125 0.875q-1.140625 0.40625 -2.328125 0.40625q-2.0 0 -3.34375 -1.3125q-1.34375 -1.3125 -1.34375 -3.1875q0 -1.6875 1.25 -2.90625q1.265625 -1.21875 3.125 -1.21875q1.90625 0 3.140625 1.25q1.234375 1.25 1.21875 3.234375zm-0.796875 -0.796875q-0.234375 -1.28125 -1.21875 -2.09375q-0.984375 -0.8125 -2.34375 -0.8125q-1.375 0 -2.359375 0.8125q-0.96875 0.796875 -1.21875 2.09375l7.140625 0zm11.22998 -2.625l0 -0.25q0 -0.296875 0.109375 -0.40625q0.109375 -0.125 0.28125 -0.125q0.171875 0 0.28125 0.125q0.109375 0.109375 0.109375 0.40625l0 1.75q0 0.296875 -0.109375 0.421875q-0.109375 0.109375 -0.28125 0.109375q-0.15625 0 -0.265625 -0.09375q-0.109375 -0.109375 -0.125 -0.359375q-0.0625 -0.671875 -0.875 -1.265625q-0.796875 -0.59375 -2.171875 -0.59375q-1.734375 0 -2.640625 1.09375q-0.90625 1.078125 -0.90625 2.484375q0 1.515625 0.984375 2.5q1.0 0.984375 2.578125 0.984375q0.921875 0 1.859375 -0.328125q0.9375 -0.34375 1.703125 -1.09375q0.1875 -0.171875 0.34375 -0.171875q0.15625 0 0.265625 0.109375q0.109375 0.09375 0.109375 0.25q0 0.40625 -0.9375 1.015625q-1.515625 1.0 -3.375 1.0q-1.875 0 -3.09375 -1.203125q-1.203125 -1.203125 -1.203125 -3.046875q0 -1.890625 1.234375 -3.125q1.234375 -1.25 3.125 -1.25q1.78125 0 3.0 1.0625zm12.51123 3.25q0 1.78125 -1.28125 3.046875q-1.28125 1.265625 -3.078125 1.265625q-1.8125 0 -3.09375 -1.265625q-1.265625 -1.28125 -1.265625 -3.046875q0 -1.78125 1.265625 -3.046875q1.28125 -1.265625 3.09375 -1.265625q1.796875 0 3.078125 1.265625q1.28125 1.25 1.28125 3.046875zm-0.796875 0q0 -1.46875 -1.046875 -2.5q-1.03125 -1.03125 -2.515625 -1.03125q-1.484375 0 -2.53125 1.046875q-1.046875 1.03125 -1.046875 2.484375q0 1.453125 1.046875 2.5q1.046875 1.03125 2.53125 1.03125q1.484375 0 2.515625 -1.03125q1.046875 -1.046875 1.046875 -2.5zm11.651855 -7.640625l0 10.859375l1.046875 0q0.28125 0 0.40625 0.109375q0.125 0.109375 0.125 0.28125q0 0.171875 -0.125 0.28125q-0.125 0.109375 -0.40625 0.109375l-1.828125 0l0 -1.546875q-1.359375 1.859375 -3.453125 1.859375q-1.046875 0 -2.015625 -0.5625q-0.96875 -0.5625 -1.53125 -1.59375q-0.5625 -1.046875 -0.5625 -2.15625q0 -1.109375 0.5625 -2.140625q0.5625 -1.046875 1.53125 -1.609375q0.96875 -0.5625 2.03125 -0.5625q2.046875 0 3.4375 1.859375l0 -4.40625l-1.046875 0q-0.28125 0 -0.40625 -0.109375q-0.125 -0.109375 -0.125 -0.28125q0 -0.171875 0.125 -0.28125q0.125 -0.109375 0.40625 -0.109375l1.828125 0zm-0.78125 7.640625q0 -1.484375 -1.015625 -2.5q-1.0 -1.03125 -2.375 -1.03125q-1.390625 0 -2.390625 1.03125q-1.0 1.015625 -1.0 2.5q0 1.46875 1.0 2.5q1.0 1.03125 2.390625 1.03125q1.375 0 2.375 -1.03125q1.015625 -1.03125 1.015625 -2.5zm12.589355 0.171875l-7.953125 0q0.21875 1.515625 1.28125 2.4375q1.0625 0.921875 2.625 0.921875q0.875 0 1.828125 -0.28125q0.953125 -0.296875 1.5625 -0.765625q0.171875 -0.140625 0.296875 -0.140625q0.15625 0 0.265625 0.125q0.109375 0.109375 0.109375 0.265625q0 0.15625 -0.15625 0.296875q-0.4375 0.46875 -1.578125 0.875q-1.140625 0.40625 -2.328125 0.40625q-2.0 0 -3.34375 -1.3125q-1.34375 -1.3125 -1.34375 -3.1875q0 -1.6875 1.25 -2.90625q1.265625 -1.21875 3.125 -1.21875q1.90625 0 3.140625 1.25q1.234375 1.25 1.21875 3.234375zm-0.796875 -0.796875q-0.234375 -1.28125 -1.21875 -2.09375q-0.984375 -0.8125 -2.34375 -0.8125q-1.375 0 -2.359375 0.8125q-0.96875 0.796875 -1.21875 2.09375l7.140625 0zm7.0424805 -3.40625l0 1.96875q1.53125 -1.375 2.28125 -1.765625q0.75 -0.40625 1.390625 -0.40625q0.703125 0 1.296875 0.46875q0.59375 0.46875 0.59375 0.71875q0 0.171875 -0.109375 0.296875q-0.109375 0.109375 -0.296875 0.109375q-0.09375 0 -0.15625 -0.03125q-0.0625 -0.03125 -0.234375 -0.21875q-0.328125 -0.3125 -0.578125 -0.4375q-0.234375 -0.125 -0.46875 -0.125q-0.5 0 -1.21875 0.40625q-0.71875 0.40625 -2.5 2.0l0 4.265625l3.453125 0q0.28125 0 0.40625 0.109375q0.125 0.109375 0.125 0.28125q0 0.171875 -0.125 0.28125q-0.125 0.109375 -0.40625 0.109375l-6.109375 0q-0.28125 0 -0.40625 -0.109375q-0.109375 -0.109375 -0.109375 -0.265625q0 -0.15625 0.109375 -0.265625q0.109375 -0.109375 0.40625 -0.109375l1.875 0l0 -6.5l-1.4375 0q-0.28125 0 -0.40625 -0.109375q-0.109375 -0.109375 -0.109375 -0.28125q0 -0.171875 0.109375 -0.28125q0.125 -0.109375 0.40625 -0.109375l2.21875 0zm12.72998 -3.765625l0 11.015625l2.671875 0q0.265625 0 0.390625 0.109375q0.125 0.109375 0.125 0.28125q0 0.171875 -0.125 0.28125q-0.125 0.109375 -0.390625 0.109375l-6.125 0q-0.28125 0 -0.40625 -0.109375q-0.125 -0.109375 -0.125 -0.28125q0 -0.171875 0.125 -0.28125q0.125 -0.109375 0.40625 -0.109375l2.671875 0l0 -9.9375l-2.546875 0.796875q-0.1875 0.046875 -0.265625 0.046875q-0.140625 0 -0.265625 -0.109375q-0.109375 -0.125 -0.109375 -0.28125q0 -0.140625 0.09375 -0.25q0.078125 -0.078125 0.3125 -0.15625l3.5625 -1.125z" fill-rule="nonzero"></path><path fill="#000000" fill-opacity="0.0" d="m411.12598 5.4881887l114.99213 0l0 92.37795l-114.99213 0z" fill-rule="nonzero"></path><path stroke="#000000" stroke-width="2.0" stroke-linejoin="round" stroke-linecap="butt" d="m411.12598 5.4881887l114.99213 0l0 92.37795l-114.99213 0z" fill-rule="nonzero"></path><path fill="#000000" d="m432.53024 46.95654l0 10.859375l1.046875 0q0.28125 0 0.40625 0.109375q0.125 0.109375 0.125 0.28125q0 0.171875 -0.125 0.28125q-0.125 0.109375 -0.40625 0.109375l-1.828125 0l0 -1.546875q-1.359375 1.859375 -3.453125 1.859375q-1.046875 0 -2.015625 -0.5625q-0.96875 -0.5625 -1.53125 -1.59375q-0.5625 -1.046875 -0.5625 -2.15625q0 -1.109375 0.5625 -2.140625q0.5625 -1.046875 1.53125 -1.609375q0.96875 -0.5625 2.03125 -0.5625q2.046875 0 3.4375 1.859375l0 -4.40625l-1.046875 0q-0.28125 0 -0.40625 -0.109375q-0.125 -0.109375 -0.125 -0.28125q0 -0.171875 0.125 -0.28125q0.125 -0.109375 0.40625 -0.109375l1.828125 0zm-0.78125 7.640625q0 -1.484375 -1.015625 -2.5q-1.0 -1.03125 -2.375 -1.03125q-1.390625 0 -2.390625 1.03125q-1.0 1.015625 -1.0 2.5q0 1.46875 1.0 2.5q1.0 1.03125 2.390625 1.03125q1.375 0 2.375 -1.03125q1.015625 -1.03125 1.015625 -2.5zm12.589355 0.171875l-7.953125 0q0.21875 1.515625 1.28125 2.4375q1.0625 0.921875 2.625 0.921875q0.875 0 1.828125 -0.28125q0.953125 -0.296875 1.5625 -0.765625q0.171875 -0.140625 0.296875 -0.140625q0.15625 0 0.265625 0.125q0.109375 0.109375 0.109375 0.265625q0 0.15625 -0.15625 0.296875q-0.4375 0.46875 -1.578125 0.875q-1.140625 0.40625 -2.328125 0.40625q-2.0 0 -3.34375 -1.3125q-1.34375 -1.3125 -1.34375 -3.1875q0 -1.6875 1.25 -2.90625q1.265625 -1.21875 3.125 -1.21875q1.90625 0 3.140625 1.25q1.234375 1.25 1.21875 3.234375zm-0.796875 -0.796875q-0.234375 -1.28125 -1.21875 -2.09375q-0.984375 -0.8125 -2.34375 -0.8125q-1.375 0 -2.359375 0.8125q-0.96875 0.796875 -1.21875 2.09375l7.140625 0zm11.22998 -2.625l0 -0.25q0 -0.296875 0.109375 -0.40625q0.109375 -0.125 0.28125 -0.125q0.171875 0 0.28125 0.125q0.109375 0.109375 0.109375 0.40625l0 1.75q0 0.296875 -0.109375 0.421875q-0.109375 0.109375 -0.28125 0.109375q-0.15625 0 -0.265625 -0.09375q-0.109375 -0.109375 -0.125 -0.359375q-0.0625 -0.671875 -0.875 -1.265625q-0.796875 -0.59375 -2.171875 -0.59375q-1.734375 0 -2.640625 1.09375q-0.90625 1.078125 -0.90625 2.484375q0 1.515625 0.984375 2.5q1.0 0.984375 2.578125 0.984375q0.921875 0 1.859375 -0.328125q0.9375 -0.34375 1.703125 -1.09375q0.1875 -0.171875 0.34375 -0.171875q0.15625 0 0.265625 0.109375q0.109375 0.09375 0.109375 0.25q0 0.40625 -0.9375 1.015625q-1.515625 1.0 -3.375 1.0q-1.875 0 -3.09375 -1.203125q-1.203125 -1.203125 -1.203125 -3.046875q0 -1.890625 1.234375 -3.125q1.234375 -1.25 3.125 -1.25q1.78125 0 3.0 1.0625zm12.51123 3.25q0 1.78125 -1.28125 3.046875q-1.28125 1.265625 -3.078125 1.265625q-1.8125 0 -3.09375 -1.265625q-1.265625 -1.28125 -1.265625 -3.046875q0 -1.78125 1.265625 -3.046875q1.28125 -1.265625 3.09375 -1.265625q1.796875 0 3.078125 1.265625q1.28125 1.25 1.28125 3.046875zm-0.796875 0q0 -1.46875 -1.046875 -2.5q-1.03125 -1.03125 -2.515625 -1.03125q-1.484375 0 -2.53125 1.046875q-1.046875 1.03125 -1.046875 2.484375q0 1.453125 1.046875 2.5q1.046875 1.03125 2.53125 1.03125q1.484375 0 2.515625 -1.03125q1.046875 -1.046875 1.046875 -2.5zm11.651855 -7.640625l0 10.859375l1.046875 0q0.28125 0 0.40625 0.109375q0.125 0.109375 0.125 0.28125q0 0.171875 -0.125 0.28125q-0.125 0.109375 -0.40625 0.109375l-1.828125 0l0 -1.546875q-1.359375 1.859375 -3.453125 1.859375q-1.046875 0 -2.015625 -0.5625q-0.96875 -0.5625 -1.53125 -1.59375q-0.5625 -1.046875 -0.5625 -2.15625q0 -1.109375 0.5625 -2.140625q0.5625 -1.046875 1.53125 -1.609375q0.96875 -0.5625 2.03125 -0.5625q2.046875 0 3.4375 1.859375l0 -4.40625l-1.046875 0q-0.28125 0 -0.40625 -0.109375q-0.125 -0.109375 -0.125 -0.28125q0 -0.171875 0.125 -0.28125q0.125 -0.109375 0.40625 -0.109375l1.828125 0zm-0.78125 7.640625q0 -1.484375 -1.015625 -2.5q-1.0 -1.03125 -2.375 -1.03125q-1.390625 0 -2.390625 1.03125q-1.0 1.015625 -1.0 2.5q0 1.46875 1.0 2.5q1.0 1.03125 2.390625 1.03125q1.375 0 2.375 -1.03125q1.015625 -1.03125 1.015625 -2.5zm12.589355 0.171875l-7.953125 0q0.21875 1.515625 1.28125 2.4375q1.0625 0.921875 2.625 0.921875q0.875 0 1.828125 -0.28125q0.953125 -0.296875 1.5625 -0.765625q0.171875 -0.140625 0.296875 -0.140625q0.15625 0 0.265625 0.125q0.109375 0.109375 0.109375 0.265625q0 0.15625 -0.15625 0.296875q-0.4375 0.46875 -1.578125 0.875q-1.140625 0.40625 -2.328125 0.40625q-2.0 0 -3.34375 -1.3125q-1.34375 -1.3125 -1.34375 -3.1875q0 -1.6875 1.25 -2.90625q1.265625 -1.21875 3.125 -1.21875q1.90625 0 3.140625 1.25q1.234375 1.25 1.21875 3.234375zm-0.796875 -0.796875q-0.234375 -1.28125 -1.21875 -2.09375q-0.984375 -0.8125 -2.34375 -0.8125q-1.375 0 -2.359375 0.8125q-0.96875 0.796875 -1.21875 2.09375l7.140625 0zm7.0424805 -3.40625l0 1.96875q1.53125 -1.375 2.28125 -1.765625q0.75 -0.40625 1.390625 -0.40625q0.703125 0 1.296875 0.46875q0.59375 0.46875 0.59375 0.71875q0 0.171875 -0.109375 0.296875q-0.109375 0.109375 -0.296875 0.109375q-0.09375 0 -0.15625 -0.03125q-0.0625 -0.03125 -0.234375 -0.21875q-0.328125 -0.3125 -0.578125 -0.4375q-0.234375 -0.125 -0.46875 -0.125q-0.5 0 -1.21875 0.40625q-0.71875 0.40625 -2.5 2.0l0 4.265625l3.453125 0q0.28125 0 0.40625 0.109375q0.125 0.109375 0.125 0.28125q0 0.171875 -0.125 0.28125q-0.125 0.109375 -0.40625 0.109375l-6.109375 0q-0.28125 0 -0.40625 -0.109375q-0.109375 -0.109375 -0.109375 -0.265625q0 -0.15625 0.109375 -0.265625q0.109375 -0.109375 0.40625 -0.109375l1.875 0l0 -6.5l-1.4375 0q-0.28125 0 -0.40625 -0.109375q-0.109375 -0.109375 -0.109375 -0.28125q0 -0.171875 0.109375 -0.28125q0.125 -0.109375 0.40625 -0.109375l2.21875 0zm8.97998 7.25l5.984375 0l0 -0.296875q0 -0.28125 0.109375 -0.40625q0.109375 -0.125 0.296875 -0.125q0.15625 0 0.265625 0.125q0.125 0.125 0.125 0.40625l0 1.078125l-7.53125 0l0 -1.15625q2.375 -2.125 4.609375 -4.34375q1.046875 -1.015625 1.4375 -1.5q0.390625 -0.484375 0.53125 -0.84375q0.15625 -0.375 0.15625 -0.75q0 -1.0 -0.8125 -1.765625q-0.8125 -0.78125 -1.953125 -0.78125q-1.015625 0 -1.8125 0.59375q-0.78125 0.578125 -1.015625 1.453125q-0.046875 0.21875 -0.140625 0.28125q-0.109375 0.09375 -0.25 0.09375q-0.15625 0 -0.265625 -0.109375q-0.109375 -0.109375 -0.109375 -0.25q0 -0.453125 0.484375 -1.203125q0.484375 -0.765625 1.34375 -1.203125q0.859375 -0.4375 1.765625 -0.4375q1.453125 0 2.5 1.015625q1.046875 1.0 1.046875 2.28125q0 0.546875 -0.171875 1.0q-0.171875 0.4375 -0.609375 0.984375q-0.421875 0.53125 -1.515625 1.609375q-2.734375 2.703125 -4.46875 4.203125l0 0.046875z" fill-rule="nonzero"></path><path fill="#000000" fill-opacity="0.0" d="m2.6377952 5.4881887l114.99213 0l0 92.37795l-114.99213 0z" fill-rule="nonzero"></path><path stroke="#000000" stroke-width="2.0" stroke-linejoin="round" stroke-linecap="butt" d="m2.6377952 5.4881887l114.99213 0l0 92.37795l-114.99213 0z" fill-rule="nonzero"></path><path fill="#000000" d="m30.149239 54.76904l-7.953125 0q0.21875 1.515625 1.28125 2.4375q1.0625 0.921875 2.625 0.921875q0.875 0 1.828125 -0.28125q0.953125 -0.296875 1.5625 -0.765625q0.171875 -0.140625 0.296875 -0.140625q0.15625 0 0.265625 0.125q0.109375 0.109375 0.109375 0.265625q0 0.15625 -0.15625 0.296875q-0.4375 0.46875 -1.578125 0.875q-1.140625 0.40625 -2.328125 0.40625q-2.0 0 -3.34375 -1.3125q-1.34375 -1.3125 -1.34375 -3.1875q0 -1.6875 1.25 -2.90625q1.265625 -1.21875 3.125 -1.21875q1.90625 0 3.140625 1.25q1.234375 1.25 1.21875 3.234375zm-0.796875 -0.796875q-0.234375 -1.28125 -1.21875 -2.09375q-0.984375 -0.8125 -2.34375 -0.8125q-1.375 0 -2.359375 0.8125q-0.96875 0.796875 -1.21875 2.09375l7.140625 0zm5.4643555 -3.40625l0 1.171875q0.8125 -0.828125 1.46875 -1.140625q0.65625 -0.3125 1.484375 -0.3125q0.890625 0 1.625 0.375q0.515625 0.28125 0.9375 0.9375q0.421875 0.640625 0.421875 1.3125l0 4.90625l0.65625 0q0.28125 0 0.40625 0.109375q0.125 0.109375 0.125 0.28125q0 0.171875 -0.125 0.28125q-0.125 0.109375 -0.40625 0.109375l-2.078125 0q-0.296875 0 -0.421875 -0.109375q-0.109375 -0.109375 -0.109375 -0.28125q0 -0.171875 0.109375 -0.28125q0.125 -0.109375 0.421875 -0.109375l0.640625 0l0 -4.78125q0 -0.828125 -0.609375 -1.390625q-0.59375 -0.578125 -1.609375 -0.578125q-0.765625 0 -1.328125 0.3125q-0.5625 0.3125 -1.609375 1.546875l0 4.890625l0.875 0q0.28125 0 0.390625 0.109375q0.125 0.109375 0.125 0.28125q0 0.171875 -0.125 0.28125q-0.109375 0.109375 -0.390625 0.109375l-2.546875 0q-0.265625 0 -0.390625 -0.109375q-0.125 -0.109375 -0.125 -0.28125q0 -0.171875 0.125 -0.28125q0.125 -0.109375 0.390625 -0.109375l0.890625 0l0 -6.46875l-0.65625 0q-0.28125 0 -0.40625 -0.109375q-0.125 -0.109375 -0.125 -0.28125q0 -0.171875 0.125 -0.28125q0.125 -0.109375 0.40625 -0.109375l1.4375 0zm17.16748 0.78125l0 -0.25q0 -0.296875 0.109375 -0.40625q0.109375 -0.125 0.28125 -0.125q0.171875 0 0.28125 0.125q0.109375 0.109375 0.109375 0.40625l0 1.75q0 0.296875 -0.109375 0.421875q-0.109375 0.109375 -0.28125 0.109375q-0.15625 0 -0.265625 -0.09375q-0.109375 -0.109375 -0.125 -0.359375q-0.0625 -0.671875 -0.875 -1.265625q-0.796875 -0.59375 -2.171875 -0.59375q-1.734375 0 -2.640625 1.09375q-0.90625 1.078125 -0.90625 2.484375q0 1.515625 0.984375 2.5q1.0 0.984375 2.578125 0.984375q0.921875 0 1.859375 -0.328125q0.9375 -0.34375 1.703125 -1.09375q0.1875 -0.171875 0.34375 -0.171875q0.15625 0 0.265625 0.109375q0.109375 0.09375 0.109375 0.25q0 0.40625 -0.9375 1.015625q-1.515625 1.0 -3.375 1.0q-1.875 0 -3.09375 -1.203125q-1.203125 -1.203125 -1.203125 -3.046875q0 -1.890625 1.234375 -3.125q1.234375 -1.25 3.125 -1.25q1.78125 0 3.0 1.0625zm12.51123 3.25q0 1.78125 -1.28125 3.046875q-1.28125 1.265625 -3.078125 1.265625q-1.8125 0 -3.09375 -1.265625q-1.265625 -1.28125 -1.265625 -3.046875q0 -1.78125 1.265625 -3.046875q1.28125 -1.265625 3.09375 -1.265625q1.796875 0 3.078125 1.265625q1.28125 1.25 1.28125 3.046875zm-0.796875 0q0 -1.46875 -1.046875 -2.5q-1.03125 -1.03125 -2.515625 -1.03125q-1.484375 0 -2.53125 1.046875q-1.046875 1.03125 -1.046875 2.484375q0 1.453125 1.046875 2.5q1.046875 1.03125 2.53125 1.03125q1.484375 0 2.515625 -1.03125q1.046875 -1.046875 1.046875 -2.5zm11.651855 -7.640625l0 10.859375l1.046875 0q0.28125 0 0.40625 0.109375q0.125 0.109375 0.125 0.28125q0 0.171875 -0.125 0.28125q-0.125 0.109375 -0.40625 0.109375l-1.828125 0l0 -1.546875q-1.359375 1.859375 -3.453125 1.859375q-1.046875 0 -2.015625 -0.5625q-0.96875 -0.5625 -1.53125 -1.59375q-0.5625 -1.046875 -0.5625 -2.15625q0 -1.109375 0.5625 -2.140625q0.5625 -1.046875 1.53125 -1.609375q0.96875 -0.5625 2.03125 -0.5625q2.046875 0 3.4375 1.859375l0 -4.40625l-1.046875 0q-0.28125 0 -0.40625 -0.109375q-0.125 -0.109375 -0.125 -0.28125q0 -0.171875 0.125 -0.28125q0.125 -0.109375 0.40625 -0.109375l1.828125 0zm-0.78125 7.640625q0 -1.484375 -1.015625 -2.5q-1.0 -1.03125 -2.375 -1.03125q-1.390625 0 -2.390625 1.03125q-1.0 1.015625 -1.0 2.5q0 1.46875 1.0 2.5q1.0 1.03125 2.390625 1.03125q1.375 0 2.375 -1.03125q1.015625 -1.03125 1.015625 -2.5zm12.589355 0.171875l-7.953125 0q0.21875 1.515625 1.28125 2.4375q1.0625 0.921875 2.625 0.921875q0.875 0 1.828125 -0.28125q0.953125 -0.296875 1.5625 -0.765625q0.171875 -0.140625 0.296875 -0.140625q0.15625 0 0.265625 0.125q0.109375 0.109375 0.109375 0.265625q0 0.15625 -0.15625 0.296875q-0.4375 0.46875 -1.578125 0.875q-1.140625 0.40625 -2.328125 0.40625q-2.0 0 -3.34375 -1.3125q-1.34375 -1.3125 -1.34375 -3.1875q0 -1.6875 1.25 -2.90625q1.265625 -1.21875 3.125 -1.21875q1.90625 0 3.140625 1.25q1.234375 1.25 1.21875 3.234375zm-0.796875 -0.796875q-0.234375 -1.28125 -1.21875 -2.09375q-0.984375 -0.8125 -2.34375 -0.8125q-1.375 0 -2.359375 0.8125q-0.96875 0.796875 -1.21875 2.09375l7.140625 0zm7.0424805 -3.40625l0 1.96875q1.53125 -1.375 2.28125 -1.765625q0.75 -0.40625 1.390625 -0.40625q0.703125 0 1.296875 0.46875q0.59375 0.46875 0.59375 0.71875q0 0.171875 -0.109375 0.296875q-0.109375 0.109375 -0.296875 0.109375q-0.09375 0 -0.15625 -0.03125q-0.0625 -0.03125 -0.234375 -0.21875q-0.328125 -0.3125 -0.578125 -0.4375q-0.234375 -0.125 -0.46875 -0.125q-0.5 0 -1.21875 0.40625q-0.71875 0.40625 -2.5 2.0l0 4.265625l3.453125 0q0.28125 0 0.40625 0.109375q0.125 0.109375 0.125 0.28125q0 0.171875 -0.125 0.28125q-0.125 0.109375 -0.40625 0.109375l-6.109375 0q-0.28125 0 -0.40625 -0.109375q-0.109375 -0.109375 -0.109375 -0.265625q0 -0.15625 0.109375 -0.265625q0.109375 -0.109375 0.40625 -0.109375l1.875 0l0 -6.5l-1.4375 0q-0.28125 0 -0.40625 -0.109375q-0.109375 -0.109375 -0.109375 -0.28125q0 -0.171875 0.109375 -0.28125q0.125 -0.109375 0.40625 -0.109375l2.21875 0z" fill-rule="nonzero"></path><path fill="#000000" fill-opacity="0.0" d="m117.62992 51.677166l89.25985 0" fill-rule="nonzero"></path><path stroke="#000000" stroke-width="2.0" stroke-linejoin="round" stroke-linecap="butt" stroke-dasharray="8.0,6.0" d="m117.62992 51.677166l77.25985 0" fill-rule="evenodd"></path><path fill="#000000" stroke="#000000" stroke-width="2.0" stroke-linecap="butt" d="m194.88977 54.98063l9.076187 -3.303463l-9.076187 -3.3034668z" fill-rule="evenodd"></path><path fill="#000000" fill-opacity="0.0" d="m321.87402 51.677166l89.25983 0" fill-rule="nonzero"></path><path stroke="#000000" stroke-width="2.0" stroke-linejoin="round" stroke-linecap="butt" stroke-dasharray="8.0,6.0" d="m321.87402 51.677166l77.25983 0" fill-rule="evenodd"></path><path fill="#000000" stroke="#000000" stroke-width="2.0" stroke-linecap="butt" d="m399.13385 54.98063l9.076202 -3.303463l-9.076202 -3.3034668z" fill-rule="evenodd"></path><path fill="#000000" fill-opacity="0.0" d="m127.57743 17.795275l65.70078 0l0 38.173225l-65.70078 0z" fill-rule="nonzero"></path><path fill="#000000" d="m152.93755 39.911263q0 0.96875 -0.34375 1.734375q-0.34375 0.765625 -0.96875 1.296875q-0.609375 0.515625 -1.484375 0.796875q-0.859375 0.28125 -1.921875 0.28125q-0.546875 0 -1.046875 -0.078125q-0.5 -0.0625 -0.90625 -0.171875q-0.390625 -0.109375 -0.65625 -0.21875q-0.25 -0.109375 -0.328125 -0.171875q-0.078125 -0.0625 -0.125 -0.140625q-0.03125 -0.09375 -0.0625 -0.203125q-0.015625 -0.125 -0.03125 -0.296875q0 -0.1875 0 -0.421875q0 -0.265625 0.015625 -0.4375q0.015625 -0.1875 0.0625 -0.296875q0.046875 -0.109375 0.09375 -0.15625q0.0625 -0.046875 0.140625 -0.046875q0.09375 0 0.28125 0.109375q0.1875 0.109375 0.5 0.234375q0.3125 0.125 0.75 0.234375q0.453125 0.109375 1.0625 0.109375q0.546875 0 0.984375 -0.109375q0.4375 -0.109375 0.734375 -0.359375q0.3125 -0.25 0.484375 -0.609375q0.171875 -0.375 0.171875 -0.90625q0 -0.4375 -0.140625 -0.78125q-0.140625 -0.359375 -0.4375 -0.59375q-0.296875 -0.234375 -0.78125 -0.359375q-0.46875 -0.125 -1.140625 -0.125q-0.53125 0 -0.984375 0.0625q-0.4375 0.046875 -0.828125 0.046875q-0.265625 0 -0.390625 -0.125q-0.109375 -0.140625 -0.109375 -0.5l0 -5.21875q0 -0.375 0.140625 -0.53125q0.15625 -0.15625 0.46875 -0.15625l5.6875 0q0.078125 0 0.15625 0.0625q0.078125 0.046875 0.125 0.171875q0.046875 0.109375 0.0625 0.3125q0.03125 0.203125 0.03125 0.484375q0 0.546875 -0.09375 0.796875q-0.09375 0.25 -0.28125 0.25l-4.265625 0l0 2.578125q0.328125 -0.046875 0.640625 -0.046875q0.3125 -0.015625 0.671875 -0.015625q0.96875 0 1.71875 0.234375q0.765625 0.21875 1.28125 0.671875q0.515625 0.4375 0.78125 1.09375q0.28125 0.640625 0.28125 1.515625zm9.799408 -2.15625q0 1.4375 -0.234375 2.59375q-0.234375 1.15625 -0.765625 1.984375q-0.515625 0.8125 -1.359375 1.25q-0.828125 0.4375 -2.046875 0.4375q-1.234375 0 -2.046875 -0.421875q-0.796875 -0.421875 -1.28125 -1.21875q-0.46875 -0.796875 -0.65625 -1.9375q-0.1875 -1.15625 -0.1875 -2.59375q0 -1.4375 0.234375 -2.59375q0.234375 -1.171875 0.75 -1.984375q0.53125 -0.8125 1.375 -1.25q0.84375 -0.4375 2.046875 -0.4375q1.234375 0 2.046875 0.421875q0.8125 0.421875 1.28125 1.21875q0.46875 0.796875 0.65625 1.9375q0.1875 1.140625 0.1875 2.59375zm-2.453125 0.125q0 -0.859375 -0.046875 -1.515625q-0.046875 -0.65625 -0.15625 -1.140625q-0.09375 -0.484375 -0.234375 -0.8125q-0.140625 -0.328125 -0.34375 -0.53125q-0.203125 -0.203125 -0.46875 -0.28125q-0.25 -0.078125 -0.578125 -0.078125q-0.546875 0 -0.90625 0.265625q-0.34375 0.25 -0.5625 0.78125q-0.203125 0.53125 -0.296875 1.328125q-0.078125 0.78125 -0.078125 1.828125q0 1.28125 0.09375 2.125q0.109375 0.828125 0.328125 1.328125q0.21875 0.5 0.5625 0.703125q0.34375 0.203125 0.828125 0.203125q0.359375 0 0.640625 -0.109375q0.28125 -0.125 0.484375 -0.359375q0.203125 -0.234375 0.34375 -0.578125q0.140625 -0.359375 0.234375 -0.8125q0.09375 -0.46875 0.125 -1.046875q0.03125 -0.59375 0.03125 -1.296875zm8.799408 -3.125q0 0.734375 -0.171875 1.328125q-0.15625 0.578125 -0.5 1.0q-0.34375 0.40625 -0.875 0.640625q-0.53125 0.234375 -1.28125 0.234375q-0.78125 0 -1.3125 -0.234375q-0.53125 -0.234375 -0.84375 -0.640625q-0.3125 -0.40625 -0.453125 -0.984375q-0.125 -0.578125 -0.125 -1.28125q0 -0.6875 0.15625 -1.265625q0.15625 -0.578125 0.484375 -1.0q0.34375 -0.4375 0.875 -0.671875q0.546875 -0.234375 1.296875 -0.234375q0.828125 0 1.359375 0.25q0.53125 0.25 0.828125 0.671875q0.3125 0.421875 0.4375 1.0q0.125 0.5625 0.125 1.1875zm-1.84375 0.0625q0 -0.515625 -0.0625 -0.875q-0.046875 -0.359375 -0.15625 -0.578125q-0.109375 -0.21875 -0.296875 -0.3125q-0.1875 -0.109375 -0.4375 -0.109375q-0.234375 0 -0.421875 0.09375q-0.171875 0.09375 -0.28125 0.3125q-0.109375 0.21875 -0.171875 0.578125q-0.0625 0.34375 -0.0625 0.84375q0 0.578125 0.0625 0.953125q0.078125 0.359375 0.1875 0.5625q0.125 0.203125 0.296875 0.28125q0.1875 0.078125 0.421875 0.078125q0.265625 0 0.4375 -0.09375q0.171875 -0.109375 0.28125 -0.328125q0.109375 -0.234375 0.15625 -0.578125q0.046875 -0.34375 0.046875 -0.828125zm8.84375 5.9375q0 0.734375 -0.171875 1.328125q-0.15625 0.578125 -0.5 1.0q-0.34375 0.40625 -0.875 0.640625q-0.53125 0.234375 -1.28125 0.234375q-0.78125 0 -1.3125 -0.234375q-0.53125 -0.234375 -0.84375 -0.640625q-0.3125 -0.40625 -0.453125 -0.984375q-0.125 -0.578125 -0.125 -1.28125q0 -0.6875 0.15625 -1.265625q0.15625 -0.578125 0.484375 -1.0q0.34375 -0.4375 0.875 -0.671875q0.546875 -0.234375 1.296875 -0.234375q0.828125 0 1.359375 0.25q0.53125 0.25 0.828125 0.671875q0.3125 0.421875 0.4375 1.0q0.125 0.5625 0.125 1.1875zm-1.84375 0.0625q0 -0.515625 -0.0625 -0.875q-0.046875 -0.359375 -0.15625 -0.578125q-0.109375 -0.21875 -0.296875 -0.3125q-0.1875 -0.109375 -0.4375 -0.109375q-0.234375 0 -0.421875 0.09375q-0.171875 0.09375 -0.28125 0.3125q-0.109375 0.21875 -0.171875 0.578125q-0.0625 0.34375 -0.0625 0.84375q0 0.578125 0.0625 0.953125q0.078125 0.359375 0.1875 0.5625q0.125 0.203125 0.296875 0.28125q0.1875 0.078125 0.421875 0.078125q0.265625 0 0.4375 -0.09375q0.171875 -0.109375 0.28125 -0.328125q0.109375 -0.234375 0.15625 -0.578125q0.046875 -0.34375 0.046875 -0.828125zm-7.125 2.921875q-0.078125 0.109375 -0.171875 0.171875q-0.078125 0.078125 -0.21875 0.125q-0.125 0.046875 -0.3125 0.0625q-0.1875 0.015625 -0.453125 0.015625q-0.296875 0 -0.484375 -0.046875q-0.1875 -0.03125 -0.265625 -0.109375q-0.078125 -0.0625 -0.0625 -0.15625q0.015625 -0.109375 0.125 -0.234375l8.546875 -11.71875q0.078125 -0.109375 0.15625 -0.171875q0.09375 -0.078125 0.21875 -0.125q0.140625 -0.046875 0.328125 -0.0625q0.1875 -0.03125 0.453125 -0.03125q0.3125 0 0.484375 0.046875q0.1875 0.03125 0.265625 0.109375q0.078125 0.078125 0.0625 0.1875q-0.015625 0.09375 -0.109375 0.21875l-8.5625 11.71875z" fill-rule="nonzero"></path><path fill="#000000" fill-opacity="0.0" d="m333.6496 17.795275l65.700806 0l0 38.173225l-65.700806 0z" fill-rule="nonzero"></path><path fill="#000000" d="m359.00974 39.911263q0 0.96875 -0.34375 1.734375q-0.34375 0.765625 -0.96875 1.296875q-0.609375 0.515625 -1.484375 0.796875q-0.859375 0.28125 -1.921875 0.28125q-0.546875 0 -1.046875 -0.078125q-0.5 -0.0625 -0.90625 -0.171875q-0.390625 -0.109375 -0.65625 -0.21875q-0.25 -0.109375 -0.328125 -0.171875q-0.078125 -0.0625 -0.125 -0.140625q-0.03125 -0.09375 -0.0625 -0.203125q-0.015625 -0.125 -0.03125 -0.296875q0 -0.1875 0 -0.421875q0 -0.265625 0.015625 -0.4375q0.015625 -0.1875 0.0625 -0.296875q0.046875 -0.109375 0.09375 -0.15625q0.0625 -0.046875 0.140625 -0.046875q0.09375 0 0.28125 0.109375q0.1875 0.109375 0.5 0.234375q0.3125 0.125 0.75 0.234375q0.453125 0.109375 1.0625 0.109375q0.546875 0 0.984375 -0.109375q0.4375 -0.109375 0.734375 -0.359375q0.3125 -0.25 0.484375 -0.609375q0.171875 -0.375 0.171875 -0.90625q0 -0.4375 -0.140625 -0.78125q-0.140625 -0.359375 -0.4375 -0.59375q-0.296875 -0.234375 -0.78125 -0.359375q-0.46875 -0.125 -1.140625 -0.125q-0.53125 0 -0.984375 0.0625q-0.4375 0.046875 -0.828125 0.046875q-0.265625 0 -0.390625 -0.125q-0.109375 -0.140625 -0.109375 -0.5l0 -5.21875q0 -0.375 0.140625 -0.53125q0.15625 -0.15625 0.46875 -0.15625l5.6875 0q0.078125 0 0.15625 0.0625q0.078125 0.046875 0.125 0.171875q0.046875 0.109375 0.0625 0.3125q0.03125 0.203125 0.03125 0.484375q0 0.546875 -0.09375 0.796875q-0.09375 0.25 -0.28125 0.25l-4.265625 0l0 2.578125q0.328125 -0.046875 0.640625 -0.046875q0.3125 -0.015625 0.671875 -0.015625q0.96875 0 1.71875 0.234375q0.765625 0.21875 1.28125 0.671875q0.515625 0.4375 0.78125 1.09375q0.28125 0.640625 0.28125 1.515625zm9.799408 -2.15625q0 1.4375 -0.234375 2.59375q-0.234375 1.15625 -0.765625 1.984375q-0.515625 0.8125 -1.359375 1.25q-0.828125 0.4375 -2.046875 0.4375q-1.234375 0 -2.046875 -0.421875q-0.796875 -0.421875 -1.28125 -1.21875q-0.46875 -0.796875 -0.65625 -1.9375q-0.1875 -1.15625 -0.1875 -2.59375q0 -1.4375 0.234375 -2.59375q0.234375 -1.171875 0.75 -1.984375q0.53125 -0.8125 1.375 -1.25q0.84375 -0.4375 2.046875 -0.4375q1.234375 0 2.046875 0.421875q0.8125 0.421875 1.28125 1.21875q0.46875 0.796875 0.65625 1.9375q0.1875 1.140625 0.1875 2.59375zm-2.453125 0.125q0 -0.859375 -0.046875 -1.515625q-0.046875 -0.65625 -0.15625 -1.140625q-0.09375 -0.484375 -0.234375 -0.8125q-0.140625 -0.328125 -0.34375 -0.53125q-0.203125 -0.203125 -0.46875 -0.28125q-0.25 -0.078125 -0.578125 -0.078125q-0.546875 0 -0.90625 0.265625q-0.34375 0.25 -0.5625 0.78125q-0.203125 0.53125 -0.296875 1.328125q-0.078125 0.78125 -0.078125 1.828125q0 1.28125 0.09375 2.125q0.109375 0.828125 0.328125 1.328125q0.21875 0.5 0.5625 0.703125q0.34375 0.203125 0.828125 0.203125q0.359375 0 0.640625 -0.109375q0.28125 -0.125 0.484375 -0.359375q0.203125 -0.234375 0.34375 -0.578125q0.140625 -0.359375 0.234375 -0.8125q0.09375 -0.46875 0.125 -1.046875q0.03125 -0.59375 0.03125 -1.296875zm8.799408 -3.125q0 0.734375 -0.171875 1.328125q-0.15625 0.578125 -0.5 1.0q-0.34375 0.40625 -0.875 0.640625q-0.53125 0.234375 -1.28125 0.234375q-0.78125 0 -1.3125 -0.234375q-0.53125 -0.234375 -0.84375 -0.640625q-0.3125 -0.40625 -0.453125 -0.984375q-0.125 -0.578125 -0.125 -1.28125q0 -0.6875 0.15625 -1.265625q0.15625 -0.578125 0.484375 -1.0q0.34375 -0.4375 0.875 -0.671875q0.546875 -0.234375 1.296875 -0.234375q0.828125 0 1.359375 0.25q0.53125 0.25 0.828125 0.671875q0.3125 0.421875 0.4375 1.0q0.125 0.5625 0.125 1.1875zm-1.84375 0.0625q0 -0.515625 -0.0625 -0.875q-0.046875 -0.359375 -0.15625 -0.578125q-0.109375 -0.21875 -0.296875 -0.3125q-0.1875 -0.109375 -0.4375 -0.109375q-0.234375 0 -0.421875 0.09375q-0.171875 0.09375 -0.28125 0.3125q-0.109375 0.21875 -0.171875 0.578125q-0.0625 0.34375 -0.0625 0.84375q0 0.578125 0.0625 0.953125q0.078125 0.359375 0.1875 0.5625q0.125 0.203125 0.296875 0.28125q0.1875 0.078125 0.421875 0.078125q0.265625 0 0.4375 -0.09375q0.171875 -0.109375 0.28125 -0.328125q0.109375 -0.234375 0.15625 -0.578125q0.046875 -0.34375 0.046875 -0.828125zm8.84375 5.9375q0 0.734375 -0.171875 1.328125q-0.15625 0.578125 -0.5 1.0q-0.34375 0.40625 -0.875 0.640625q-0.53125 0.234375 -1.28125 0.234375q-0.78125 0 -1.3125 -0.234375q-0.53125 -0.234375 -0.84375 -0.640625q-0.3125 -0.40625 -0.453125 -0.984375q-0.125 -0.578125 -0.125 -1.28125q0 -0.6875 0.15625 -1.265625q0.15625 -0.578125 0.484375 -1.0q0.34375 -0.4375 0.875 -0.671875q0.546875 -0.234375 1.296875 -0.234375q0.828125 0 1.359375 0.25q0.53125 0.25 0.828125 0.671875q0.3125 0.421875 0.4375 1.0q0.125 0.5625 0.125 1.1875zm-1.84375 0.0625q0 -0.515625 -0.0625 -0.875q-0.046875 -0.359375 -0.15625 -0.578125q-0.109375 -0.21875 -0.296875 -0.3125q-0.1875 -0.109375 -0.4375 -0.109375q-0.234375 0 -0.421875 0.09375q-0.171875 0.09375 -0.28125 0.3125q-0.109375 0.21875 -0.171875 0.578125q-0.0625 0.34375 -0.0625 0.84375q0 0.578125 0.0625 0.953125q0.078125 0.359375 0.1875 0.5625q0.125 0.203125 0.296875 0.28125q0.1875 0.078125 0.421875 0.078125q0.265625 0 0.4375 -0.09375q0.171875 -0.109375 0.28125 -0.328125q0.109375 -0.234375 0.15625 -0.578125q0.046875 -0.34375 0.046875 -0.828125zm-7.125 2.921875q-0.078125 0.109375 -0.171875 0.171875q-0.078125 0.078125 -0.21875 0.125q-0.125 0.046875 -0.3125 0.0625q-0.1875 0.015625 -0.453125 0.015625q-0.296875 0 -0.484375 -0.046875q-0.1875 -0.03125 -0.265625 -0.109375q-0.078125 -0.0625 -0.0625 -0.15625q0.015625 -0.109375 0.125 -0.234375l8.546875 -11.71875q0.078125 -0.109375 0.15625 -0.171875q0.09375 -0.078125 0.21875 -0.125q0.140625 -0.046875 0.328125 -0.0625q0.1875 -0.03125 0.453125 -0.03125q0.3125 0 0.484375 0.046875q0.1875 0.03125 0.265625 0.109375q0.078125 0.078125 0.0625 0.1875q-0.015625 0.09375 -0.109375 0.21875l-8.5625 11.71875z" fill-rule="nonzero"></path></g></svg>

