<?xml version="1.0" encoding="UTF-8" standalone="no"?>
<svg
   xmlns:dc="http://purl.org/dc/elements/1.1/"
   xmlns:cc="http://creativecommons.org/ns#"
   xmlns:rdf="http://www.w3.org/1999/02/22-rdf-syntax-ns#"
   xmlns:svg="http://www.w3.org/2000/svg"
   xmlns="http://www.w3.org/2000/svg"
   xmlns:sodipodi="http://sodipodi.sourceforge.net/DTD/sodipodi-0.dtd"
   xmlns:inkscape="http://www.inkscape.org/namespaces/inkscape"
   xml:space="preserve"
   id="Layer_1"
   viewBox="0 0 2047.9999 2048.0001"
   height="2048"
   width="2048"
   version="1.1"
   inkscape:version="0.91 r13725"
   sodipodi:docname="steinwurf_logo_big.svg"><sodipodi:namedview
     pagecolor="#ffffff"
     bordercolor="#666666"
     borderopacity="1"
     objecttolerance="10"
     gridtolerance="10"
     guidetolerance="10"
     inkscape:pageopacity="1"
     inkscape:pageshadow="2"
     inkscape:window-width="2560"
     inkscape:window-height="1387"
     id="namedview7"
     showgrid="false"
     inkscape:zoom="0.4609375"
     inkscape:cx="435.76575"
     inkscape:cy="1024.2679"
     inkscape:window-x="0"
     inkscape:window-y="34"
     inkscape:window-maximized="1"
     inkscape:current-layer="Layer_1" /><metadata
     id="metadata33"><rdf:RDF><cc:Work
         rdf:about=""><dc:format>image/svg+xml</dc:format><dc:type
           rdf:resource="http://purl.org/dc/dcmitype/StillImage" /><dc:title></dc:title></cc:Work></rdf:RDF></metadata><defs
     id="defs31" /><path
     id="rect3333"
     d="m 508.72365,352.35245 0,143.34 -147.91215,0 0,1151.92945 95.24012,0 0,158.8759 1200.39628,0 0,-158.8759 139.4822,0 0,-1151.92945 -86.7504,0 0,-143.34 -1200.45605,0 z"
     style="fill:#ffffff;fill-opacity:1"
     inkscape:connector-curvature="0" /><path
     style="fill:#8dc63f;fill-opacity:1"
     id="path3"
     d="M 1261.9467,128.20798 C 461.00746,114.15037 -58.431466,816.12186 5.269073,1210.5317 78.311568,1662.9702 653.1625,2135.5912 1229.6984,2034.1032 2097.5012,1881.4247 2031.1342,1035.162 2048,702.08982 2024.2008,342.89287 1811.3778,193.84321 1425.2039,141.29598 c -55.8118,-7.6 -109.8613,-12.1504 -163.2572,-13.088 z M 1059.3868,426.2241 c 96.1646,0 186.0004,3.9616 269.0721,12.08321 83.1362,8.1824 155.7595,23.90401 217.6763,48.32642 61.9491,24.45441 110.0636,58.71682 145.1175,102.69444 35.054,43.97762 52.4036,101.14884 52.4036,171.15847 l 0,39.26402 c 0,13.0496 -6.3207,24.33281 -20.1552,33.22561 -13.899,8.9568 -30.7811,13.088 -50.388,13.088 -22.8319,0 -41.5601,-4.1952 -55.4269,-13.088 -13.8345,-8.8608 -20.1552,-20.33601 -20.1552,-33.22561 l 0,-36.24322 c 0,-43.62242 -14.4231,-79.44323 -41.3182,-107.73124 -26.8629,-28.25282 -63.6421,-50.47682 -110.8537,-67.45603 -47.3083,-16.91201 -102.9205,-28.99521 -167.2882,-36.24322 -64.4322,-7.2512 -135.04,-11.0752 -211.6298,-11.0752 -78.23448,0 -151.05928,2.304 -218.68404,8.0544 -67.65706,5.7344 -125.42189,16.65601 -174.3426,32.21762 -48.88851,15.5936 -88.42499,38.00961 -116.90025,67.45602 -28.53981,29.44642 -42.32595,66.91843 -42.32595,112.76485 l 0,27.18081 c 0,57.31842 17.61564,100.40004 53.41129,129.88165 35.76343,29.47842 90.05351,48.23042 163.25725,56.38083 58.4985,6.5408 110.26515,11.6448 154.18739,14.096 43.88995,2.432 96.39834,4.42881 158.21841,6.03841 35.7634,0 68.4713,0.32 97.7528,1.024 29.2492,0.832 58.0228,2.4 85.6597,4.02886 27.6045,1.6 55.2011,3.6224 83.6441,6.0384 28.4108,2.464 60.8849,4.8672 96.745,8.0544 45.5347,4.8672 90.0777,13.7984 134.0322,25.1712 43.89,11.3728 82.7492,28.8352 116.9002,52.3552 34.1833,23.552 61.3122,54.8512 81.6286,94.64 20.3165,39.7569 31.2406,89.9265 31.2406,150.0161 l 0,67.456 c 0,68.1409 -17.0432,125.8977 -50.388,172.1633 -33.377,46.2656 -81.282,83.3408 -143.102,111.7569 -61.8523,28.352 -135.7091,47.9648 -222.7151,59.4016 -85.6194,11.1168 -182.0984,17.1168 -289.2274,17.1168 -97.6157,0 -188.48344,-3.9296 -273.10309,-12.0832 -84.61965,-8.1184 -159.2504,-23.872 -222.71511,-48.3264 -63.40025,-24.4545 -113.58675,-58.5473 -150.15638,-101.6865 -36.5696,-43.1424 -54.41907,-100.08 -54.41907,-170.1537 l 0,-121.824 c 0,-34.2144 24.7103,-51.3472 73.56656,-51.3472 50.53315,0 75.58205,17.1648 75.58205,51.3472 l 0,116.7904 c 0,45.6225 12.97996,83.4145 38.29491,112.7649 25.21817,29.2512 61.76361,52.3616 109.84592,69.4688 48.05001,17.1072 105.64553,29.9072 173.33481,37.2512 67.62477,7.3472 142.6344,10.0704 225.7384,10.0704 79.8469,0 154.4212,-2.752 223.7229,-10.0704 69.2049,-7.344 130.0898,-20.7168 181.3969,-40.272 51.3394,-19.5232 91.4482,-46.16 119.9235,-79.5392 28.5076,-33.344 42.326,-76.7424 42.326,-128.8705 l 0,-55.376 c 0,-74.8416 -20.7115,-127.712 -61.4734,-157.0625 -40.7619,-29.2864 -95.2294,-48.1984 -165.2728,-56.3808 -29.3459,-3.2544 -57.5874,-5.6384 -83.6441,-8.0544 -26.0567,-2.496 -52.9195,-4.4288 -80.6209,-6.0416 -27.7336,-1.632 -57.9261,-3.2 -89.6907,-4.0256 -31.7968,-0.8 -66.6976,-1.024 -105.8149,-1.024 -34.2154,0 -64.64178,-0.32 -90.69838,-1.024 -26.05668,-0.832 -51.3394,-2.368 -76.58983,-4.0256 -25.31494,-1.632 -51.54093,-3.5936 -77.5976,-6.0416 -26.05664,-2.464 -55.10435,-6.144 -87.67517,-11.0752 -47.24384,-6.5408 -91.45628,-15.9456 -133.02441,-28.1888 -41.56813,-12.2432 -77.912,-29.616 -108.83818,-53.3632 -30.99062,-23.68007 -55.83798,-53.44968 -74.57427,-88.5985 -18.73629,-35.11681 -28.21731,-78.19203 -28.21731,-128.87045 l 0,-22.15041 c 0,-67.01443 17.01101,-122.01925 50.38806,-166.12487 33.40928,-44.13761 79.97587,-79.35363 141.0865,-104.70724 61.14285,-25.35681 133.90317,-42.76162 218.68406,-53.36322 84.74864,-10.63041 179.86512,-16.10881 284.18853,-16.10881 z"
     inkscape:connector-curvature="0" /></svg>